<svg xmlns="http://www.w3.org/2000/svg" width="1200" height="720" viewBox="0 0 1200 720"><rect width="100%" height="100%" fill="#FFFFFF"/><style>text{font-family:-apple-system,BlinkMacSystemFont,"Apple SD Gothic Neo","Noto Sans KR",sans-serif;fill:#111827}.muted{fill:#6B7280}.grid{stroke:#E5E7EB;stroke-width:1}.axis{stroke:#9CA3AF;stroke-width:1.2}</style><text x="110" y="52" font-size="30" font-weight="700">삼성전자 사업보고서 매출</text><text x="110" y="82" font-size="16" class="muted">단위: 백만원</text><line x1="110.0" y1="615.00" x2="1140.0" y2="615.00" class="grid"/><text x="96.0" y="620.00" text-anchor="end" font-size="15" class="muted">-5,265,470</text><line x1="110.0" y1="515.00" x2="1140.0" y2="515.00" class="grid"/><text x="96.0" y="520.00" text-anchor="end" font-size="15" class="muted">7,371,658</text><line x1="110.0" y1="415.00" x2="1140.0" y2="415.00" class="grid"/><text x="96.0" y="420.00" text-anchor="end" font-size="15" class="muted">20,008,786</text><line x1="110.0" y1="315.00" x2="1140.0" y2="315.00" class="grid"/><text x="96.0" y="320.00" text-anchor="end" font-size="15" class="muted">32,645,914</text><line x1="110.0" y1="215.00" x2="1140.0" y2="215.00" class="grid"/><text x="96.0" y="220.00" text-anchor="end" font-size="15" class="muted">45,283,042</text><line x1="110.0" y1="115.00" x2="1140.0" y2="115.00" class="grid"/><text x="96.0" y="120.00" text-anchor="end" font-size="15" class="muted">57,920,170</text><line x1="110.0" y1="115.0" x2="110.0" y2="615.0" class="axis"/><line x1="110.0" y1="573.33" x2="1140.0" y2="573.33" class="axis"/><text x="195.83" y="646.00" text-anchor="middle" font-size="15" class="muted">2026Q2</text><text x="367.50" y="646.00" text-anchor="middle" font-size="15" class="muted">2026Q1</text><text x="539.17" y="646.00" text-anchor="middle" font-size="15" class="muted">2025Q4</text><text x="710.83" y="646.00" text-anchor="middle" font-size="15" class="muted">2025Q3</text><text x="882.50" y="646.00" text-anchor="middle" font-size="15" class="muted">2025Q2</text><text x="1054.17" y="646.00" text-anchor="middle" font-size="15" class="muted">2025Q1</text><rect x="143.92" y="193.32" width="103.82" height="380.01" rx="3" fill="#2563EB"/><text x="195.83" y="184.32" text-anchor="middle" font-size="13" fill="#2563EB">48,022,400</text><rect x="315.59" y="156.67" width="103.82" height="416.67" rx="3" fill="#2563EB"/><text x="367.50" y="147.67" text-anchor="middle" font-size="13" fill="#2563EB">52,654,700</text><rect x="487.25" y="222.74" width="103.82" height="350.59" rx="3" fill="#2563EB"/><text x="539.17" y="213.74" text-anchor="middle" font-size="13" fill="#2563EB">44,304,800</text><rect x="658.92" y="190.53" width="103.82" height="382.80" rx="3" fill="#2563EB"/><text x="710.83" y="181.53" text-anchor="middle" font-size="13" fill="#2563EB">48,375,100</text><rect x="830.59" y="228.55" width="103.82" height="344.78" rx="3" fill="#2563EB"/><text x="882.50" y="219.55" text-anchor="middle" font-size="13" fill="#2563EB">43,570,200</text><rect x="1002.25" y="164.09" width="103.82" height="409.25" rx="3" fill="#2563EB"/><text x="1054.17" y="155.09" text-anchor="middle" font-size="13" fill="#2563EB">51,717,200</text><circle cx="970.0" cy="76" r="6" fill="#2563EB"/><text x="982.0" y="82" font-size="15">매출액 (chart_eligible=True, item=DX 부문, line_role=leaf_revenue)</text><text x="110" y="698" font-size="14" class="muted">출처: 10B local data business-report source</text></svg>